# xmcd
#
# Track frame offsets:
#	150
#	18355
#	33500
#	48774
#	64362
#	83413
#	99830
#	117628
#	133269
#	149690
#	165776
#	180511
#	197178
#	216632
#	231055
#	261731
#
# Disc length: 3498 seconds
#
# Revision: 1
# Processed by: cddbd v1.5.2PL0 Copyright (c) Steve Scherf et al.
# Submitted via: audiograbber 1.83.01
#
DISCID=e90da810
DTITLE=Sound Choice - 9507
DYEAR=1900
DGENRE=
TTITLE0=Travis, Randy - Hard Rock Bottom Of My Heart
TTITLE1=Keith, Toby - He Ain't Worth Missing
TTITLE2=Brooks and Dunn - He's Got You
TTITLE3=Alabama - Here We Are
TTITLE4=Keith, Toby - Who's That Man
TTITLE5=Brooks and Dunn - Honky Tonk Truth
TTITLE6=Paisley, Brad - Who Needs Pictures
TTITLE7=Strait, George - You Can't Make A Heart Love Somebody
TTITLE8=Stone, Doug - Jukebox With A Country Song
TTITLE9=McGraw, Tim - Can't Really Be Love
TTITLE10=Chesnutt, Mark - Brother Jukebox
TTITLE11=Montgomery, John Michael - Home To You
TTITLE12=Tritt, Travis - Help Me Hold On
TTITLE13=Strait, George - Easy Come Easy Go
TTITLE14=Brooks and Dunn - You're Gonna Miss Me When I'm Gone
TTITLE15=x - x
EXTD=
EXTT0=
EXTT1=
EXTT2=
EXTT3=
EXTT4=
EXTT5=
EXTT6=
EXTT7=
EXTT8=
EXTT9=
EXTT10=
EXTT11=
EXTT12=
EXTT13=
EXTT14=
EXTT15=
PLAYORDER=
